<?xml version="1.0" standalone="no"?><!DOCTYPE svg PUBLIC "-//W3C//DTD SVG 1.1//EN" "http://www.w3.org/Graphics/SVG/1.1/DTD/svg11.dtd"><svg height="199" node-id="1" sillyvg="true" template-height="199" template-width="370" version="1.1" viewBox="0 0 370 199" width="370" xmlns="http://www.w3.org/2000/svg" xmlns:xlink="http://www.w3.org/1999/xlink"><defs node-id="68"><linearGradient gradientUnits="objectBoundingBox" id="linearGradient-1" node-id="7" spreadMethod="pad" x1="-0.47019014" x2="0.68868846" y1="-1.8596388" y2="1"><stop offset="0" stop-color="#d2d2d2"></stop><stop offset="1" stop-color="#d2d2d2" stop-opacity="0"></stop></linearGradient><linearGradient gradientUnits="objectBoundingBox" id="linearGradient-2" node-id="10" spreadMethod="pad" x1="1.1899998" x2="0.5450187" y1="-1.1086411" y2="0.5558718"><stop offset="0" stop-color="#d2d2d2"></stop><stop offset="1" stop-color="#d2d2d2" stop-opacity="0"></stop></linearGradient><linearGradient gradientUnits="objectBoundingBox" id="linearGradient-3" node-id="13" spreadMethod="pad" x1="0.5" x2="0.5" y1="-2.211569" y2="1"><stop offset="0" stop-color="#d2d2d2"></stop><stop offset="1" stop-color="#d2d2d2" stop-opacity="0"></stop></linearGradient><linearGradient gradientUnits="objectBoundingBox" id="linearGradient-4" node-id="16" spreadMethod="pad" x1="1.0008096" x2="0.38826305" y1="-0.97780466" y2="1.0473608"><stop offset="0" stop-color="#d2d2d2"></stop><stop offset="1" stop-color="#d2d2d2" stop-opacity="0"></stop></linearGradient><linearGradient gradientUnits="objectBoundingBox" id="linearGradient-5" node-id="19" spreadMethod="pad" x1="0.5" x2="0.5" y1="-2.301163" y2="1"><stop offset="0" stop-color="#d2d2d2"></stop><stop offset="1" stop-color="#d2d2d2" stop-opacity="0"></stop></linearGradient><linearGradient gradientUnits="objectBoundingBox" id="linearGradient-6" node-id="22" spreadMethod="pad" x1="0.5" x2="0.5" y1="-1.6920329" y2="1"><stop offset="0" stop-color="#d2d2d2"></stop><stop offset="1" stop-color="#d2d2d2" stop-opacity="0"></stop></linearGradient><linearGradient gradientUnits="objectBoundingBox" id="linearGradient-7" node-id="25" spreadMethod="pad" x1="0.49999997" x2="0.49999997" y1="0" y2="0.99999994"><stop offset="0" stop-color="#d1d1d1"></stop><stop offset="1" stop-color="#eaeaea"></stop></linearGradient><linearGradient gradientUnits="objectBoundingBox" id="linearGradient-8" node-id="28" spreadMethod="pad" x1="0.49999997" x2="0.8393093" y1="0.15252078" y2="0.5535193"><stop offset="0" stop-color="#f2f1f1"></stop><stop offset="1" stop-color="#f6f6f6"></stop></linearGradient><linearGradient gradientUnits="objectBoundingBox" id="linearGradient-9" node-id="31" spreadMethod="pad" x1="0.49999997" x2="0.49999997" y1="0" y2="0.99999994"><stop offset="0" stop-color="#e2e1e1"></stop><stop offset="1" stop-color="#fdfdfd"></stop></linearGradient><linearGradient gradientUnits="objectBoundingBox" id="linearGradient-10" node-id="34" spreadMethod="pad" x1="0.49999997" x2="0.47684595" y1="0.4851969" y2="0.5420419"><stop offset="0" stop-color="#ffffff"></stop><stop offset="1" stop-color="#f7f7f7"></stop></linearGradient><linearGradient gradientUnits="objectBoundingBox" id="linearGradient-11" node-id="37" spreadMethod="pad" x1="0.49999997" x2="0.49999997" y1="0" y2="0.99999994"><stop offset="0" stop-color="#eaeaea"></stop><stop offset="1" stop-color="#fcfcfc" stop-opacity="0"></stop></linearGradient><linearGradient gradientUnits="objectBoundingBox" id="linearGradient-12" node-id="40" spreadMethod="pad" x1="1.3085393" x2="1.3085393" y1="-0.35095304" y2="1.1696045"><stop offset="0" stop-color="#ffffff"></stop><stop offset="1" stop-color="#478ffc"></stop></linearGradient><linearGradient gradientUnits="objectBoundingBox" id="linearGradient-13" node-id="43" spreadMethod="pad" x1="1.3085393" x2="1.3085393" y1="-0.35095304" y2="1.1696045"><stop offset="0" stop-color="#ffffff"></stop><stop offset="1" stop-color="#478ffc"></stop></linearGradient></defs><g node-id="147"><g node-id="148"><g node-id="149"><path d="M 73.30 159.60 L 70.30 158.00 L 67.40 155.80 L 64.70 153.30 L 62.30 150.50 L 60.50 147.40 L 59.30 144.10 L 58.80 141.90 L 59.20 137.30 L 61.00 137.40 L 62.40 138.60 L 65.80 143.40 L 68.80 146.80 L 70.30 148.10 L 72.00 148.60 L 72.50 148.10 L 72.90 147.00 L 72.90 144.80 L 72.30 140.30 L 68.10 121.90 L 67.10 112.50 L 67.20 109.00 L 67.70 106.10 L 68.60 103.60 L 69.80 101.30 L 71.20 99.60 L 72.70 98.40 L 74.40 97.50 L 76.20 97.10 L 78.00 97.20 L 79.80 97.80 L 81.60 98.90 L 83.30 100.70 L 84.80 102.80 L 86.10 105.70 L 87.20 109.50 L 88.90 118.60 L 90.40 124.70 L 91.50 127.50 L 92.60 129.30 L 93.50 130.20 L 94.40 130.50 L 95.40 130.30 L 96.40 129.60 L 101.70 119.30 L 103.90 117.10 L 105.40 116.40 L 108.30 116.20 L 111.60 117.50 L 113.40 119.00 L 116.30 122.60 L 119.20 128.50 L 121.60 136.10 L 122.40 140.10 L 122.70 144.00 L 122.30 149.10 L 120.70 153.30 L 119.40 155.10 L 117.70 156.60 L 113.20 158.90 L 105.90 161.00 L 100.90 161.90 L 90.70 162.50 L 85.60 162.30 L 81.00 161.70 L 76.70 160.80 L 73.30 159.60 Z" fill="url(#linearGradient-1)" fill-rule="nonzero" group-id="1,2,3" id="路径" node-id="50" stroke="none" target-height="65.4" target-width="63.899998" target-x="58.8" target-y="97.1"></path><path d="M 273.20 180.40 L 272.10 177.30 L 271.30 173.70 L 271.00 170.10 L 271.20 166.40 L 271.60 164.00 L 273.20 159.60 L 275.90 155.90 L 277.70 154.50 L 278.40 155.10 L 279.20 156.70 L 278.50 163.50 L 278.40 168.00 L 278.70 170.00 L 279.10 171.10 L 279.60 171.50 L 280.30 171.50 L 281.30 170.90 L 282.80 169.30 L 285.40 165.50 L 294.70 149.10 L 297.30 145.10 L 300.20 141.40 L 302.60 138.90 L 305.00 137.10 L 307.20 135.80 L 309.60 134.90 L 311.80 134.60 L 313.80 134.60 L 315.70 135.20 L 317.20 136.10 L 318.50 137.40 L 319.50 139.00 L 320.00 141.00 L 320.10 143.60 L 319.80 146.10 L 318.80 149.10 L 317.10 152.70 L 310.70 163.40 L 308.30 168.90 L 307.80 171.00 L 307.90 172.30 L 308.40 173.10 L 309.20 173.70 L 310.40 173.80 L 321.30 169.60 L 324.50 169.50 L 326.00 170.00 L 327.30 170.70 L 329.10 172.90 L 329.80 175.00 L 330.20 179.60 L 329.90 181.90 L 328.90 185.30 L 327.30 188.60 L 325.20 191.80 L 322.60 194.60 L 318.30 197.50 L 313.40 199.20 L 310.70 199.50 L 307.80 199.40 L 298.10 197.20 L 292.90 195.40 L 287.80 193.20 L 281.60 189.60 L 276.50 185.30 L 274.60 183.00 L 273.20 180.40 Z" fill="url(#linearGradient-2)" fill-rule="nonzero" group-id="1,2,3" id="路径" node-id="51" stroke="none" target-height="64.899994" target-width="59.200012" target-x="271" target-y="134.6"></path><path d="M 370.50 199.40 L 361.70 193.60 L 352.40 188.10 L 342.50 182.80 L 332.20 177.80 L 321.70 173.20 L 310.90 169.00 L 299.50 165.10 L 287.80 161.50 L 276.00 158.30 L 263.80 155.50 L 251.30 153.10 L 238.40 151.10 L 225.60 149.60 L 212.40 148.40 L 199.00 147.70 L 185.30 147.50 L 171.50 147.70 L 158.10 148.40 L 145.00 149.60 L 132.10 151.10 L 119.20 153.10 L 106.70 155.50 L 94.50 158.30 L 82.70 161.50 L 71.00 165.10 L 59.70 169.00 L 48.80 173.20 L 38.30 177.80 L 28.00 182.80 L 18.20 188.10 L 8.80 193.60 L 0.00 199.40 L 370.50 199.40 Z" fill="url(#linearGradient-3)" fill-rule="nonzero" group-id="1,2,3" id="路径" node-id="52" stroke="none" target-height="51.899994" target-width="370.5" target-x="0" target-y="147.5"></path><path d="M 293.50 103.10 L 291.00 107.20 L 290.20 109.50 L 289.80 111.90 L 289.80 114.30 L 290.40 116.70 L 291.20 118.10 L 294.20 121.20 L 294.80 122.50 L 295.00 124.50 L 294.60 126.70 L 292.80 130.80 L 288.00 137.60 L 285.20 140.70 L 286.80 142.40 L 287.90 144.40 L 288.50 146.50 L 288.50 148.90 L 287.10 153.30 L 285.80 155.20 L 283.20 158.00 L 281.90 158.80 L 279.00 158.80 L 274.50 157.80 L 270.10 156.30 L 265.80 154.50 L 262.00 152.20 L 260.60 150.70 L 259.60 148.90 L 259.40 146.30 L 260.70 144.50 L 263.70 142.70 L 264.80 141.60 L 265.50 139.90 L 266.60 134.20 L 267.20 127.80 L 268.40 124.60 L 269.30 123.70 L 270.60 123.00 L 275.80 122.00 L 278.90 120.20 L 281.30 116.50 L 284.10 110.40 L 285.80 107.80 L 286.90 106.80 L 293.50 103.10 Z M 282.80 123.80 L 276.30 133.20 L 272.50 140.80 L 271.10 145.00 L 270.40 147.90 L 269.90 153.60 L 274.20 153.60 L 275.90 143.40 L 277.00 138.90 L 280.40 128.70 L 282.80 123.80 Z" fill="url(#linearGradient-4)" fill-rule="nonzero" group-id="1,2,3" id="形状结合" node-id="53" stroke="none" target-height="55.700005" target-width="35.600006" target-x="259.4" target-y="103.1"></path><path d="M 104.10 22.00 L 103.90 19.70 L 103.10 17.50 L 101.90 15.70 L 100.30 14.10 L 98.30 13.00 L 96.10 12.30 L 93.70 12.20 L 91.50 12.60 L 89.40 13.50 L 87.70 14.80 L 86.20 16.60 L 85.20 18.70 L 83.00 19.00 L 81.00 19.80 L 79.30 21.00 L 78.00 22.80 L 77.20 24.80 L 76.90 27.00 L 77.20 29.10 L 78.10 31.10 L 79.50 32.80 L 81.20 34.00 L 83.30 34.80 L 103.30 34.90 L 106.50 34.10 L 108.70 31.90 L 109.40 30.50 L 109.70 28.80 L 109.60 27.20 L 109.10 25.70 L 107.10 23.20 L 104.10 22.00 Z" fill="url(#linearGradient-5)" fill-rule="nonzero" group-id="1,2,3" id="路径" node-id="54" stroke="none" target-height="22.7" target-width="32.799995" target-x="76.9" target-y="12.2"></path><path d="M 178.10 12.20 L 177.50 8.40 L 176.70 6.60 L 175.20 4.30 L 173.20 2.40 L 171.60 1.40 L 168.00 0.20 L 166.00 0.00 L 162.30 0.50 L 159.80 1.70 L 157.50 3.30 L 156.30 4.70 L 154.50 8.10 L 150.90 8.80 L 147.90 10.60 L 145.80 13.30 L 144.60 16.50 L 144.50 18.40 L 145.20 21.90 L 147.00 24.90 L 149.60 27.10 L 152.90 28.30 L 154.80 28.40 L 177.00 28.40 L 179.10 28.10 L 180.90 27.40 L 182.60 26.20 L 183.80 24.70 L 184.70 22.90 L 185.10 20.80 L 185.00 18.70 L 184.30 16.80 L 183.20 15.10 L 181.80 13.80 L 180.00 12.80 L 178.10 12.20 Z" fill="url(#linearGradient-6)" fill-rule="nonzero" group-id="1,2,3" id="路径" node-id="55" stroke="none" target-height="28.4" target-width="40.600006" target-x="144.5" target-y="0"></path></g><g node-id="150"><g node-id="151"><path d="M 178.10 40.40 L 179.30 40.30 L 181.60 40.90 L 183.20 42.50 L 183.70 43.70 L 183.90 45.30 L 183.50 46.80 L 182.60 48.10 L 181.30 49.00 L 183.00 55.40 L 181.20 55.90 L 179.50 49.50 L 178.00 49.30 L 176.60 48.70 L 175.50 47.60 L 174.80 46.10 L 174.60 44.80 L 175.30 42.60 L 176.90 40.90 L 178.10 40.40 Z" fill="url(#linearGradient-7)" fill-rule="nonzero" group-id="1,2,4,5" id="形状结合" node-id="58" stroke="none" target-height="15.600002" target-width="9.299988" target-x="174.6" target-y="40.3"></path><path d="M 227.10 73.30 L 228.00 79.80 L 227.40 86.20 L 226.20 90.40 L 224.40 94.40 L 222.00 98.30 L 219.10 101.90 L 215.80 105.20 L 211.90 108.20 L 207.70 110.80 L 203.00 112.90 L 197.90 114.60 L 192.70 115.70 L 187.60 116.10 L 182.70 116.00 L 177.80 115.40 L 173.20 114.20 L 169.00 112.50 L 164.90 110.30 L 161.40 107.80 L 158.30 104.70 L 154.50 99.50 L 152.00 93.40 L 151.10 86.80 L 151.70 80.40 L 152.90 76.20 L 154.70 72.20 L 157.10 68.30 L 160.00 64.70 L 163.30 61.40 L 167.20 58.40 L 171.50 55.90 L 176.10 53.70 L 181.20 52.00 L 186.40 51.00 L 191.50 50.50 L 196.40 50.60 L 201.30 51.30 L 205.90 52.40 L 210.20 54.10 L 214.20 56.30 L 217.70 58.90 L 220.90 61.90 L 224.60 67.10 L 227.10 73.30 Z" fill="url(#linearGradient-8)" fill-rule="nonzero" group-id="1,2,4,5" id="椭圆形" node-id="59" stroke="none" target-height="65.6" target-width="76.899994" target-x="151.1" target-y="50.5"></path><path d="M 271.90 83.30 L 272.20 85.50 L 272.10 87.80 L 271.40 90.20 L 270.20 92.80 L 268.10 96.00 L 265.20 99.40 L 261.30 103.10 L 252.10 109.80 L 240.20 116.50 L 226.20 122.80 L 210.70 128.20 L 202.20 130.70 L 193.70 132.80 L 177.60 135.80 L 162.30 137.40 L 148.70 137.50 L 137.30 136.30 L 132.10 135.10 L 127.80 133.60 L 124.40 131.90 L 122.10 130.20 L 120.30 128.40 L 119.10 126.50 L 118.30 124.40 L 117.90 122.20 L 118.10 120.00 L 118.70 117.50 L 119.90 114.90 L 122.00 111.70 L 124.90 108.30 L 128.80 104.60 L 138.00 97.90 L 149.90 91.20 L 164.00 84.90 L 179.40 79.50 L 187.90 77.10 L 196.40 74.90 L 212.50 71.90 L 227.80 70.30 L 241.50 70.20 L 252.80 71.40 L 258.00 72.60 L 262.30 74.10 L 265.70 75.90 L 268.00 77.50 L 269.80 79.30 L 271.10 81.20 L 271.90 83.30 Z" fill="url(#linearGradient-9)" fill-rule="nonzero" group-id="1,2,4,5" id="椭圆形" node-id="60" stroke="none" target-height="67.3" target-width="154.30002" target-x="117.9" target-y="70.2"></path><path d="M 253.20 93.20 L 253.60 91.80 L 254.30 91.00 L 255.60 90.10 L 257.50 89.50 L 259.60 89.30 L 261.20 89.50 L 262.70 90.50 L 263.00 91.90 L 262.00 93.40 L 260.60 94.30 L 258.70 94.90 L 256.70 95.10 L 255.10 94.80 L 254.10 94.40 L 253.20 93.20 Z M 139.00 119.20 L 141.00 118.60 L 142.60 118.60 L 144.30 119.30 L 144.70 119.90 L 144.60 121.40 L 142.90 123.30 L 141.10 124.30 L 139.20 124.80 L 137.50 124.90 L 135.90 124.20 L 135.30 122.90 L 136.10 121.20 L 137.30 120.10 L 139.00 119.20 Z M 210.70 90.60 L 210.70 89.40 L 211.20 88.20 L 212.40 86.90 L 215.60 85.00 L 217.80 84.40 L 220.20 84.10 L 223.90 84.50 L 225.40 85.20 L 226.40 86.10 L 226.90 87.10 L 226.90 88.40 L 226.40 89.60 L 225.20 90.90 L 222.00 92.70 L 219.80 93.40 L 217.50 93.70 L 213.70 93.30 L 212.20 92.60 L 211.20 91.70 L 210.70 90.60 Z M 170.50 95.10 L 174.70 94.40 L 178.10 95.10 L 179.20 95.90 L 179.80 97.00 L 179.90 98.20 L 179.50 99.40 L 178.50 100.80 L 175.50 103.00 L 173.30 103.90 L 169.10 104.60 L 165.70 103.90 L 164.60 103.10 L 164.00 102.10 L 163.90 100.90 L 164.30 99.60 L 165.30 98.20 L 168.30 96.00 L 170.50 95.10 Z" fill="url(#linearGradient-10)" fill-rule="nonzero" group-id="1,2,4,5" id="形状结合" node-id="61" stroke="none" target-height="40.800003" target-width="127.7" target-x="135.3" target-y="84.1"></path><path d="M 238.20 100.90 L 238.20 102.20 L 237.50 103.70 L 236.00 105.60 L 231.50 109.10 L 228.00 111.10 L 222.50 113.80 L 215.60 116.70 L 208.20 119.30 L 199.90 121.70 L 191.40 123.80 L 183.70 125.20 L 176.30 126.20 L 170.10 126.60 L 166.10 126.60 L 160.50 125.80 L 158.20 125.00 L 156.90 124.00 L 156.30 122.90 L 156.20 121.60 L 156.90 120.10 L 158.40 118.20 L 162.90 114.70 L 166.40 112.70 L 171.90 110.00 L 178.80 107.10 L 186.20 104.50 L 194.60 102.10 L 203.00 100.00 L 210.70 98.60 L 218.20 97.60 L 224.30 97.20 L 228.30 97.20 L 233.90 98.00 L 236.20 98.80 L 237.50 99.80 L 238.20 100.90 Z" fill="#ffffff" fill-rule="nonzero" group-id="1,2,4,5" id="椭圆形复制-6" node-id="62" stroke="none" target-height="29.400002" target-width="82" target-x="156.2" target-y="97.2"></path><path d="M 169.30 114.90 L 141.60 196.10 L 156.20 195.90 L 170.70 195.00 L 185.00 193.40 L 199.30 191.30 L 213.60 188.50 L 227.80 185.10 L 242.00 181.00 L 256.20 176.20 L 270.40 170.80 L 284.60 164.70 L 222.60 100.50 L 169.30 114.90 Z" fill="url(#linearGradient-11)" fill-rule="nonzero" group-id="1,2,4,5" id="路径-2" node-id="63" stroke="none" target-height="95.600006" target-width="143" target-x="141.6" target-y="100.5"></path><g node-id="152"><path d="M 186.30 134.20 L 179.70 153.80 L 182.90 153.60 L 182.50 147.20 L 192.50 146.50 L 192.90 153.00 L 196.70 152.70 L 197.20 160.60 L 193.50 160.80 L 193.90 167.30 L 183.90 168.00 L 183.40 161.50 L 169.30 162.40 L 168.80 155.20 L 176.00 134.80 Z" fill="url(#linearGradient-12)" fill-rule="nonzero" group-id="1,2,4,5,6" id="路径" node-id="65" stroke="none" target-height="33.800003" target-width="28.399994" target-x="168.8" target-y="134.2"></path><path d="M 217.20 130.80 L 216.90 135.10 L 216.20 138.50 L 215.10 141.30 L 213.70 143.60 L 212.20 145.20 L 210.50 146.40 L 208.60 147.30 L 206.30 147.90 L 203.70 148.10 L 201.00 147.90 L 198.80 147.30 L 196.80 146.40 L 195.10 145.20 L 193.60 143.60 L 192.10 141.40 L 191.00 138.60 L 190.30 135.10 L 190.00 130.80 L 190.20 126.60 L 190.90 123.10 L 192.00 120.30 L 193.40 118.10 L 194.90 116.50 L 196.60 115.30 L 198.60 114.40 L 200.90 113.80 L 203.50 113.60 L 206.10 113.80 L 208.40 114.30 L 210.40 115.20 L 212.10 116.50 L 213.60 118.00 L 215.00 120.30 L 216.10 123.10 L 216.90 126.60 L 217.20 130.80 Z M 200.50 130.80 L 200.70 135.70 L 201.20 138.40 L 201.80 139.70 L 202.60 140.30 L 203.70 140.50 L 204.70 140.30 L 205.50 139.70 L 206.10 138.30 L 206.50 135.70 L 206.70 130.80 L 206.50 125.90 L 206.00 123.30 L 205.40 122.00 L 204.60 121.30 L 203.60 121.10 L 202.50 121.30 L 201.70 122.00 L 201.10 123.30 L 200.70 125.90 L 200.50 130.80 Z M 232.90 121.80 L 230.20 142.50 L 233.30 141.70 L 231.60 135.40 L 241.40 132.80 L 243.10 139.10 L 246.80 138.10 L 248.80 145.80 L 245.10 146.80 L 246.80 153.20 L 237.10 155.80 L 235.40 149.40 L 221.50 153.10 L 219.70 146.10 L 222.80 124.50 L 232.90 121.80 Z" fill="url(#linearGradient-13)" fill-rule="nonzero" group-id="1,2,4,5,6" id="形状" node-id="66" stroke="none" target-height="42.200005" target-width="58.800003" target-x="190" target-y="113.6"></path></g></g></g></g></g></svg>